#!OML:ASF H:\Punching\Project 1\Capture day 1\Session 1\female.ASF
:FULLY-SPECIFIED
:DEGREES
1764
root -1.67303 15.7117 6.43908 13.5098 13.1405 -5.6806
lowerback 5.79634 -0.818059 7.04724
upperback -4.7363 -0.315703 1.34331
thorax -8.32535 -0.517649 -2.48782
lowerneck -15.0342 -1.84383 5.01995
upperneck 18.7537 -4.06807 1.53274
head 8.2544 -1.39903 -0.776997
rclavicle -5.03671e-014 3.23025e-014
rhumerus -31.1586 1.43706 -75.7142
rradius 28.9457
rwrist 11.7862
rhand -8.93801 -11.6107
rfingers 7.12502
rthumb 17.0061 -40.8863
lclavicle -5.03671e-014 3.23025e-014
lhumerus -53.0697 -20.1118 103.657
lradius 116.501
lwrist 8.60329
lhand 14.076 28.5391
lfingers 7.12502
lthumb 38.9812 54.0645
rfemur -29.2612 3.99729 18.222
rtibia 23.057
rfoot -2.86266 -17.7355
rtoes -1.03266
lfemur -30.5533 -7.19319 -2.04939
ltibia 50.711
lfoot -13.3271 -8.02688
ltoes -19.0658
1765
root -1.61192 15.6928 6.41004 13.3358 12.6662 -5.80068
lowerback 5.6653 -0.84161 7.00538
upperback -4.75854 -0.358691 1.39047
thorax -8.27554 -0.533723 -2.40962
lowerneck -15.0279 -1.85558 5.05955
upperneck 18.8582 -4.11913 1.62706
head 8.28987 -1.40759 -0.758794
rclavicle 1.22998e-015 -5.76476e-015
rhumerus -31.2679 -0.712351 -74.3529
rradius 27.6683
rwrist 12.7489
rhand -9.33211 -11.6635
rfingers 7.12502
rthumb 16.6267 -40.9713
lclavicle 1.22998e-015 -5.76476e-015
lhumerus -52.8288 -20.4662 103.68
lradius 116.543
lwrist 8.64551
lhand 14.0917 28.548
lfingers 7.12502
lthumb 38.996 54.0692
rfemur -29.2618 4.25217 18.0321
rtibia 23.0984
rfoot -2.81106 -17.5229
rtoes -1.25352
lfemur -29.7107 -7.7336 -2.25649
ltibia 49.7208
lfoot -14.0328 -7.4622
ltoes -19.2376
1766
root -1.54889 15.6719 6.37905 13.1661 12.1746 -5.90028
lowerback 5.54229 -0.869561 6.94548
upperback -4.78029 -0.409015 1.43159
thorax -8.23012 -0.55273 -2.32695
lowerneck -15.027 -1.8664 5.09306
upperneck 18.9763 -4.17023 1.72823
head 8.3313 -1.41531 -0.737519
rclavicle 1.06163e-014 -9.98893e-015
rhumerus -31.4129 -2.81406 -72.9537
rradius 26.5574
rwrist 13.6791
rhand -9.761 -11.6429
rfingers 7.12502
rthumb 16.2138 -40.9849
lclavicle 1.06163e-014 -9.98893e-015
lhumerus -52.5184 -20.8432 103.648
lradius 116.586
lwrist 8.69837
lhand 14.0057 28.5337
lfingers 7.12502
lthumb 38.9149 54.0781
rfemur -29.3101 4.51109 17.809
rtibia 23.2092
rfoot -2.7822 -17.3013
rtoes -1.48657
lfemur -28.8423 -8.24805 -2.50817
ltibia 48.7946
lfoot -14.9225 -6.82355
ltoes -19.5988
1767
root -1.48411 15.6494 6.34575 13.002 11.6668 -5.98098
lowerback 5.43211 -0.902375 6.8682
upperback -4.80261 -0.466629 1.46732
thorax -8.193 -0.574796 -2.23943
lowerneck -15.0287 -1.87712 5.11892
upperneck 19.1035 -4.22248 1.83909
head 8.37682 -1.42269 -0.711994
rclavicle 3.60297e-014 -1.40143e-014
rhumerus -31.5912 -4.80368 -71.5486
rradius 25.6186
rwrist 14.536
rhand -10.0846 -11.6798
rfingers 7.12502
rthumb 15.9022 -41.0469
lclavicle 3.60297e-014 -1.40143e-014
lhumerus -52.1492 -21.2301 103.561
lradius 116.632
lwrist 8.70298
lhand 13.8859 28.485
lfingers 7.12502
lthumb 38.8019 54.0615
rfemur -29.3952 4.77876 17.5532
rtibia 23.3585
rfoot -2.75977 -17.0739
rtoes -1.72777
lfemur -27.9604 -8.71321 -2.80783
ltibia 47.9616
lfoot -15.9684 -6.1184
ltoes -20.0858
1768
root -1.41767 15.626 6.30997 12.8404 11.1407 -6.04651
lowerback 5.34289 -0.939292 6.77614
upperback -4.8259 -0.529426 1.49861
thorax -8.16919 -0.599141 -2.14764
lowerneck -15.0317 -1.88933 5.1373
upperneck 19.2374 -4.27754 1.95779
head 8.42528 -1.43078 -0.683004
rclavicle 1.36664e-016 2.51463e-014
rhumerus -31.7999 -6.62919 -70.1715
rradius 24.8572
rwrist 15.2692
rhand -10.3292 -11.7722
rfingers 7.12502
rthumb 15.6667 -41.158
lclavicle 1.36664e-016 2.51463e-014
lhumerus -51.7165 -21.6222 103.408
lradius 116.675
lwrist 8.63967
lhand 13.76 28.3936
lfingers 7.12502
lthumb 38.6832 54.0037
rfemur -29.5124 5.06724 17.2656
rtibia 23.5389
rfoot -2.74714 -16.8504
rtoes -1.95386
lfemur -27.076 -9.10683 -3.15679
ltibia 47.2363
lfoot -17.121 -5.35605
ltoes -20.6151
1769
root -1.34946 15.6021 6.27209 12.6808 10.597 -6.0956
lowerback 5.26864 -0.979823 6.66991
upperback -4.84624 -0.597531 1.52419
thorax -8.15086 -0.62559 -2.05335
lowerneck -15.0389 -1.90432 5.15163
upperneck 19.3746 -4.33761 2.0818
head 8.47599 -1.44071 -0.652195
rclavicle 1.48716e-014 -2.99171e-014
rhumerus -32.0267 -8.23611 -68.8606
rradius 24.2724
rwrist 15.8229
rhand -10.4771 -11.9737
rfingers 7.12502
rthumb 15.5242 -41.3705
lclavicle 1.48716e-014 -2.99171e-014
lhumerus -51.2271 -22.0213 103.2
lradius 116.712
lwrist 8.50361
lhand 13.6113 28.2471
lfingers 7.12502
lthumb 38.5429 53.8966
rfemur -29.6496 5.3739 16.9453
rtibia 23.7312
rfoot -2.73623 -16.6273
rtoes -2.16362
lfemur -26.1989 -9.4199 -3.56051
ltibia 46.5936
lfoot -18.3162 -4.52823
ltoes -21.1121
1770
root -1.27915 15.578 6.23209 12.5235 10.0358 -6.12402
lowerback 5.2085 -1.02439 6.55004
upperback -4.86247 -0.671716 1.54257
thorax -8.1363 -0.654526 -1.95833
lowerneck -15.038 -1.92195 5.16265
upperneck 19.503 -4.40091 2.20989
head 8.52251 -1.45228 -0.61962
rclavicle -6.22444e-015 -3.75703e-014
rhumerus -32.2723 -9.56675 -67.6574
rradius 23.8837
rwrist 16.1348
rhand -10.5961 -12.2557
rfingers 7.12502
rthumb 15.4096 -41.6614
lclavicle -6.22444e-015 -3.75703e-014
lhumerus -50.6792 -22.4155 102.928
lradius 116.741
lwrist 8.29929
lhand 13.4677 28.053
lfingers 7.12502
lthumb 38.4074 53.7402
rfemur -29.7972 5.68619 16.5905
rtibia 23.9171
rfoot -2.72175 -16.3978
rtoes -2.3631
lfemur -25.3383 -9.64986 -4.02762
ltibia 45.9872
lfoot -19.4763 -3.60638
ltoes -21.4473
1771
root -1.20693 15.5535 6.19022 12.3687 9.45484 -6.13783
lowerback 5.16201 -1.07059 6.42105
upperback -4.87434 -0.748396 1.55382
thorax -8.12472 -0.684419 -1.86544
lowerneck -15.0384 -1.94187 5.179
upperneck 19.6274 -4.46822 2.33406
head 8.56785 -1.46578 -0.589628
rclavicle 3.70236e-015 -1.93815e-014
rhumerus -32.5244 -10.606 -66.5859
rradius 23.6676
rwrist 16.1705
rhand -10.7709 -12.5151
rfingers 7.12502
rthumb 15.2412 -41.9336
lclavicle 3.70236e-015 -1.93815e-014
lhumerus -50.0763 -22.7978 102.592
lradius 116.765
lwrist 8.05766
lhand 13.3314 27.8326
lfingers 7.12502
lthumb 38.2788 53.5555
rfemur -29.9506 6.01233 16.2071
rtibia 24.0807
rfoot -2.69012 -16.1632
rtoes -2.52875
lfemur -24.5002 -9.79132 -4.55147
ltibia 45.3701
lfoot -20.5401 -2.59584
ltoes -21.557
1772
root -1.13291 15.5294 6.14642 12.2209 8.85939 -6.13013
lowerback 5.12571 -1.11883 6.27688
upperback -4.88062 -0.829112 1.55687
thorax -8.1127 -0.715602 -1.77228
lowerneck -15.0439 -1.96342 5.19981
upperneck 19.7454 -4.53846 2.45403
head 8.61182 -1.48087 -0.562094
rclavicle 1.22874e-014 -2.34566e-014
rhumerus -32.7649 -11.3654 -65.6556
rradius 23.5983
rwrist 15.9206
rhand -11.0036 -12.7064
rfingers 7.12502
rthumb 15.017 -42.1419
lclavicle 1.22874e-014 -2.34566e-014
lhumerus -49.4217 -23.1682 102.204
lradius 116.774
lwrist 7.81238
lhand 13.1443 27.574
lfingers 7.12502
lthumb 38.1022 53.3454
rfemur -30.1063 6.34539 15.7899
rtibia 24.2107
rfoot -2.63643 -15.9281
rtoes -2.65054
lfemur -23.6949 -9.85294 -5.13571
ltibia 44.7143
lfoot -21.5149 -1.53172
ltoes -21.4006
1773
root -1.05764 15.5064 6.10054 12.0834 8.25471 -6.09789
lowerback 5.10277 -1.16969 6.10956
upperback -4.88147 -0.914986 1.5533
thorax -8.10207 -0.748162 -1.67253
lowerneck -15.0701 -1.98621 5.21909
upperneck 19.8638 -4.61149 2.57137
head 8.65982 -1.49727 -0.535789
rclavicle 2.45748e-014 -3.37934e-015
rhumerus -32.9827 -11.863 -64.8692
rradius 23.6625
rwrist 15.3951
rhand -11.2623 -12.8507
rfingers 7.12502
rthumb 14.7678 -42.3046
lclavicle 2.45748e-014 -3.37934e-015
lhumerus -48.7221 -23.511 101.768
lradius 116.776
lwrist 7.57893
lhand 12.9353 27.315
lfingers 7.12502
lthumb 37.9048 53.1401
rfemur -30.2614 6.69581 15.334
rtibia 24.2929
rfoot -2.54934 -15.7096
rtoes -2.67975
lfemur -22.9356 -9.84817 -5.77374
ltibia 44.0221
lfoot -22.3633 -0.447891
ltoes -20.9129
1774
root -0.981245 15.4849 6.05242 11.9626 7.6608 -6.0292
lowerback 5.08641 -1.22712 5.9142
upperback -4.87756 -1.01252 1.53981
thorax -8.08987 -0.785065 -1.56619
lowerneck -15.1163 -2.01183 5.23061
upperneck 19.98 -4.68888 2.69082
head 8.711 -1.51577 -0.508261
rclavicle 3.33834e-014 -5.96354e-016
rhumerus -33.1789 -12.1459 -64.2124
rradius 23.8447
rwrist 14.6363
rhand -11.5286 -12.9144
rfingers 7.12502
rthumb 14.5113 -42.3869
lclavicle 3.33834e-014 -5.96354e-016
lhumerus -47.9628 -23.8353 101.282
lradius 116.754
lwrist 7.39499
lhand 12.687 27.0728
lfingers 7.12502
lthumb 37.6702 52.961
rfemur -30.4113 7.05195 14.8268
rtibia 24.3168
rfoot -2.42885 -15.5219
rtoes -2.59372
lfemur -22.235 -9.79246 -6.47005
ltibia 43.3186
lfoot -23.0726 0.624143
ltoes -20.195
1775
root -0.904251 15.4657 6.00223 11.8571 7.07855 -5.92768
lowerback 5.07637 -1.28919 5.68772
upperback -4.86703 -1.11932 1.51875
thorax -8.07346 -0.824807 -1.44941
lowerneck -15.1886 -2.04046 5.23367
upperneck 20.0953 -4.77111 2.81187
head 8.76701 -1.53655 -0.479732
rclavicle -1.40889e-014 4.96962e-014
rhumerus -33.3536 -12.2267 -63.6857
rradius 24.1477
rwrist 13.6423
rhand -11.7409 -13.0166
rfingers 7.12502
rthumb 14.3066 -42.5037
lclavicle -1.40889e-014 4.96962e-014
lhumerus -47.1574 -24.1378 100.76
lradius 116.713
lwrist 7.26332
lhand 12.3968 26.8576
lfingers 7.12502
lthumb 37.3959 52.8186
rfemur -30.5496 7.43566 14.2684
rtibia 24.2743
rfoot -2.279 -15.3908
rtoes -2.36875
lfemur -21.6061 -9.70012 -7.20799
ltibia 42.6402
lfoot -23.6526 1.6307
ltoes -19.261
